<svg xmlns="http://www.w3.org/2000/svg" version="1.1" xmlns:xlink="http://www.w3.org/1999/xlink" xmlns:svgjs="http://svgjs.dev/svgjs" width="32" height="32"><svg width="32" height="32" viewBox="0 0 32 32" fill="none" xmlns="http://www.w3.org/2000/svg">
<g clip-path="url(#clip0_1_2)">
<path d="M8.77599 5.006C6.47066 5.006 5.38732 5.69933 5.52599 7.086L6.04599 12.416C6.06332 12.572 6.07199 12.7973 6.07199 13.092C6.07199 13.924 5.87265 14.5653 5.47399 15.016C5.07532 15.4493 4.45999 15.744 3.62799 15.9C4.47732 16.056 5.09265 16.3507 5.47399 16.784C5.87265 17.2 6.07199 17.8327 6.07199 18.682C6.07199 18.9767 6.06332 19.2107 6.04599 19.384L5.52599 24.714C5.45665 25.4767 5.71665 26.014 6.30599 26.326C6.89532 26.638 7.71866 26.794 8.77599 26.794V28.536C7.21599 28.536 5.94199 28.2673 4.95399 27.73C3.96599 27.1927 3.47199 26.2827 3.47199 25C3.47199 24.7747 3.48065 24.6013 3.49799 24.48L4.04399 19.54C4.06132 19.4187 4.06999 19.2453 4.06999 19.02C4.06999 18.2573 3.78399 17.694 3.21199 17.33C2.63999 16.966 1.59999 16.784 0.091988 16.784V15.016C1.59999 15.016 2.63999 14.8427 3.21199 14.496C3.78399 14.132 4.06999 13.5687 4.06999 12.806C4.06999 12.598 4.06132 12.4333 4.04399 12.312L3.49799 7.32C3.48065 7.19867 3.47199 7.02533 3.47199 6.8C3.47199 5.51733 3.96599 4.60733 4.95399 4.07C5.94199 3.53267 7.21599 3.264 8.77599 3.264V5.006ZM17.1118 25H14.8498V9.036H9.25983V7.086H22.7538L22.5198 9.036H17.1118V25ZM23.2637 3.264C24.8237 3.264 26.0977 3.53267 27.0857 4.07C28.0737 4.60733 28.5677 5.51733 28.5677 6.8C28.5677 7.02533 28.559 7.19867 28.5417 7.32L27.9957 12.312C27.9783 12.3987 27.9697 12.5287 27.9697 12.702C27.9697 13.482 28.273 14.0627 28.8797 14.444C29.5037 14.8253 30.5263 15.016 31.9477 15.016V16.784C30.509 16.784 29.4863 16.9747 28.8797 17.356C28.273 17.7373 27.9697 18.3267 27.9697 19.124C27.9697 19.2973 27.9783 19.436 27.9957 19.54L28.5417 24.48C28.559 24.6013 28.5677 24.7747 28.5677 25C28.5677 26.2827 28.0737 27.1927 27.0857 27.73C26.0977 28.2673 24.8237 28.536 23.2637 28.536V26.794C24.321 26.794 25.1443 26.638 25.7337 26.326C26.323 26.014 26.583 25.4767 26.5137 24.714L25.9937 19.384C25.959 19.0373 25.9417 18.8033 25.9417 18.682C25.9417 17.8153 26.1583 17.174 26.5917 16.758C27.025 16.342 27.727 16.0647 28.6977 15.926C27.7617 15.7527 27.0683 15.4493 26.6177 15.016C26.1843 14.5653 25.9677 13.9153 25.9677 13.066C25.9677 12.7887 25.9763 12.572 25.9937 12.416L26.5137 7.086C26.6523 5.69933 25.569 5.006 23.2637 5.006V3.264Z" fill="#60A5FA" style="--darkreader-inline-fill: #5eb1fa;" data-darkreader-inline-fill=""></path>
</g>
<defs>
<clipPath id="SvgjsClipPath1007">
<rect width="32" height="32" fill="white" style="--darkreader-inline-fill: #e8e6e3;" data-darkreader-inline-fill=""></rect>
</clipPath>
</defs>
</svg><style>@media (prefers-color-scheme: light) { :root { filter: none; } }
@media (prefers-color-scheme: dark) { :root { filter: none; } }
</style></svg>