<svg width="786" height="361" viewBox="0 0 786 361" fill="none" xmlns="http://www.w3.org/2000/svg">
<mask id="mask0_36_8" style="mask-type:alpha" maskUnits="userSpaceOnUse" x="24" y="37" width="695" height="314">
<path d="M260.652 199.838C440.288 72.2642 584.377 36.7362 707.862 43.4131C577.326 183.021 352.127 232.741 270.313 249.833L264.538 274.829C263.398 279.761 259.848 283.786 255.096 285.531L95.6989 344.101L90.3297 337.215C151.892 303.445 166.663 298.644 148.578 270.234C135.293 249.365 114.598 240.203 38.4712 271.496L32.4519 264.085L204.891 198.269C206.84 197.525 208.922 197.196 211.005 197.303L260.652 199.838Z" fill="#E78888" stroke="white" stroke-width="10"/>
</mask>
<g mask="url(#mask0_36_8)">
<path d="M260.652 199.838C440.288 72.2642 584.377 36.7362 707.862 43.4131C577.326 183.021 352.127 232.741 270.313 249.833L264.538 274.829C263.398 279.761 259.848 283.786 255.096 285.531L95.6989 344.101L90.3297 337.215C151.892 303.445 166.663 298.644 148.578 270.234C135.293 249.365 114.598 240.203 38.4712 271.496L32.4519 264.085L204.891 198.269C206.84 197.525 208.922 197.196 211.005 197.303L260.652 199.838Z" fill="#E78888" stroke="white" stroke-width="10"/>
<path d="M564.302 148.159C522.663 124.107 523.892 84.1632 529.711 67.1976C621.05 36.8734 683.883 41.7911 703.882 48.0404C694 70.79 606.711 124.265 564.302 148.159Z" fill="#F1D05C"/>
<path d="M260.652 199.838C440.288 72.2642 584.377 36.7362 707.862 43.4131C577.326 183.021 352.127 232.741 270.313 249.833L264.538 274.829C263.398 279.761 259.848 283.786 255.096 285.531L95.6989 344.101L90.3297 337.215C151.892 303.445 166.663 298.644 148.578 270.234C135.293 249.365 114.598 240.203 38.4712 271.496L32.4519 264.085L204.891 198.269C206.84 197.525 208.922 197.196 211.005 197.303L260.652 199.838Z" stroke="white" stroke-width="10"/>
</g>
<path d="M103.518 305.984L84.2355 280.975L9.85314 311.4L67.698 298.983L7.44812 330.526L73.7758 310.094L15.2752 350.644C55.1008 332.018 61.0931 320.591 103.518 305.984Z" fill="#F1D05C"/>
<path d="M96.3776 284.069L179.143 246.438L217.497 253.164L109.311 300.378L96.3776 284.069Z" fill="#E78888"/>
<path d="M283.286 215.736L269.867 274.374L259.91 271.755L270.018 230.474L103.518 305.984L82.2978 281.469L201.389 232.505L207.119 238.783L98.0783 284.667L107.591 295.656L283.286 215.736Z" fill="white"/>
<path d="M708.491 47.9281L705.664 39.7727L783.049 14.9035L708.491 47.9281Z" fill="white"/>
<path d="M518.598 76.2253C379.984 125.527 273.863 198.359 228.292 228.736C278.12 200.748 409.258 122.957 521.936 89.3061L518.598 76.2253Z" fill="#F1D05C"/>
<path d="M631.882 55.0596C582.908 58.8869 535.184 70.4451 518.598 76.2253L517.576 90.4189C538.883 82.918 597.766 63.5928 631.882 55.0596Z" fill="#E78888"/>
<path d="M525.077 66.5309C521.167 80.3003 514.468 124.753 562.621 151.683" stroke="white" stroke-width="10"/>
</svg>
